<svg xmlns="http://www.w3.org/2000/svg" viewBox="0 0 64 64" role="img" aria-labelledby="title">
  <title>Fieldwire</title>
  <rect width="64" height="64" rx="2" fill="#f7c744"/>
  <circle cx="32" cy="32" r="24" fill="none" stroke="#1f262b" stroke-width="2.6"/>
  <path d="M22 27.5c0-6.7 5.4-12.1 12.1-12.1 5.8 0 10.7 4.1 11.9 9.5H28.2v4h18.3v1.2c0 6-3.9 11-9.4 12.8l4.3 6.1-3.7 2.6-6.1-8.6-.2-.5v-4.3h3.9v2.6c3.9-.8 6.8-4.3 6.8-8.6v-.5H22.3c-.2-1-.3-1.8-.3-2.7Zm7.7 9.4h-6.6c.8 3.4 3.2 6.2 6.5 7.6l5-3.6-4.9-4Z" fill="#1f262b"/>
</svg>
