<svg xmlns="http://www.w3.org/2000/svg" viewBox="0 0 64 64" role="img" aria-labelledby="title desc">
  <title id="title">Fire Suppression SD Detector</title>
  <desc id="desc">A circular smoke detector symbol with SD lettering.</desc>
  <path fill="currentColor" fill-rule="evenodd" d="M32 5c14.91 0 27 12.09 27 27S46.91 59 32 59 5 46.91 5 32 17.09 5 32 5Zm0 6c-11.6 0-21 9.4-21 21s9.4 21 21 21 21-9.4 21-21-9.4-21-21-21Zm-8.42 11.8c4.02 0 6.82 2.14 7.18 5.46h-4.5c-.19-1.15-1.23-1.88-2.68-1.88-1.31 0-2.19.57-2.19 1.49 0 1.12 1.38 1.51 3.3 2.03 2.97.8 6.43 1.74 6.43 5.77 0 3.43-2.93 5.53-7.1 5.53-4.35 0-7.29-2.19-7.61-5.75h4.54c.24 1.35 1.33 2.14 3.07 2.14 1.49 0 2.47-.59 2.47-1.58 0-1.15-1.4-1.55-3.34-2.1-2.96-.85-6.28-1.79-6.28-5.67 0-3.33 2.7-5.44 6.71-5.44Zm10.44.36h6.98c5.49 0 8.75 3.33 8.75 8.84s-3.26 8.84-8.75 8.84h-6.98V23.16Zm4.58 3.88v9.92h2.14c2.82 0 4.37-1.74 4.37-4.96s-1.55-4.96-4.37-4.96H38.6Z"/>
</svg>
