<svg xmlns="http://www.w3.org/2000/svg" viewBox="0 0 64 64" role="img" aria-labelledby="title desc">
  <title id="title">Fire Alarm Control Panel</title>
  <desc id="desc">A fire alarm control panel icon with an indicator flame, display, keypad, and alarm speaker.</desc>
  <path fill="currentColor" d="M12 5h40c3.87 0 7 3.13 7 7v40c0 3.87-3.13 7-7 7H12c-3.87 0-7-3.13-7-7V12c0-3.87 3.13-7 7-7Zm0 5c-1.1 0-2 .9-2 2v40c0 1.1.9 2 2 2h40c1.1 0 2-.9 2-2V12c0-1.1-.9-2-2-2H12Zm4 5h32c1.1 0 2 .9 2 2v8c0 1.1-.9 2-2 2H16c-1.1 0-2-.9-2-2v-8c0-1.1.9-2 2-2Zm3 4v4h26v-4H19Zm18 13h10c1.1 0 2 .9 2 2v13c0 1.1-.9 2-2 2H37c-1.1 0-2-.9-2-2V34c0-1.1.9-2 2-2Zm3 4v2h2v-2h-2Zm5 0v2h2v-2h-2Zm-5 5v2h2v-2h-2Zm5 0v2h2v-2h-2Zm-5 5v2h7v-2h-7ZM22.64 30.1c.47-.67 1.53-.46 1.73.33.48 1.87 1.65 2.95 2.88 4.08 1.73 1.59 3.56 3.27 3.56 6.77 0 4.34-3.34 7.72-7.81 7.72-4.62 0-8-3.22-8-7.64 0-3.1 1.86-5.86 3.55-7.43.63-.59 1.64-.08 1.55.78-.08.75.01 1.39.33 1.92.34-2.55 1.16-5.04 2.21-6.53Zm1.24 7.49c-.21 1.08-.26 2.03-.12 2.77.15.78-.58 1.42-1.33 1.16-1.38-.48-2.54-1.18-3.43-2.19-.4.74-.67 1.53-.67 2.34 0 2.05 1.57 3.5 4.67 3.5 2.8 0 4.48-1.71 4.48-3.9 0-1.65-.73-2.49-1.83-3.54-.52-.49-1.12-1.06-1.77-1.84Z"/>
</svg>
