<svg xmlns="http://www.w3.org/2000/svg" viewBox="0 0 64 64" role="img" aria-labelledby="title desc">
  <title id="title">Pull Station</title>
  <desc id="desc">A fire alarm pull station icon with a wall-mounted box, alarm label, pull handle, and downward pull arrow.</desc>
  <path fill="currentColor" d="M18 4h28c3.31 0 6 2.69 6 6v44c0 3.31-2.69 6-6 6H18c-3.31 0-6-2.69-6-6V10c0-3.31 2.69-6 6-6Zm0 5c-.55 0-1 .45-1 1v44c0 .55.45 1 1 1h28c.55 0 1-.45 1-1V10c0-.55-.45-1-1-1H18Zm4 6h20c1.1 0 2 .9 2 2v9c0 1.1-.9 2-2 2H22c-1.1 0-2-.9-2-2v-9c0-1.1.9-2 2-2Zm3 4v5h14v-5H25Zm-3 13h20c1.1 0 2 .9 2 2v10c0 1.1-.9 2-2 2h-6.5v2.45l2.34-2.34a2 2 0 0 1 2.83 2.83l-6.25 6.25a2 2 0 0 1-2.83 0l-6.25-6.25a2 2 0 0 1 2.83-2.83l2.33 2.34V46H22c-1.1 0-2-.9-2-2V34c0-1.1.9-2 2-2Zm3 5v4h14v-4H25Zm-2-26a2 2 0 0 1 2-2h14a2 2 0 0 1 0 4H25a2 2 0 0 1-2-2Z"/>
</svg>
