<svg xmlns="http://www.w3.org/2000/svg" viewBox="0 0 64 64" role="img" aria-labelledby="title desc">
  <title id="title">Smoke Detector</title>
  <desc id="desc">A ceiling smoke detector icon with a circular housing, center sensor, side vents, and smoke wave indicator.</desc>
  <path fill="currentColor" d="M32 6c10.49 0 19 5.37 19 12v5.31c4.29 3.74 7 9.25 7 15.39C58 53.08 46.36 60 32 60S6 53.08 6 38.7c0-6.14 2.71-11.65 7-15.39V18c0-6.63 8.51-12 19-12Zm0 5c-8.33 0-14 3.69-14 7s5.67 7 14 7 14-3.69 14-7-5.67-7-14-7Zm0 19c-5.27 0-10.03-1.34-13.5-3.52C13.9 29.26 11 33.58 11 38.7 11 49.64 19.89 55 32 55s21-5.36 21-16.3c0-5.12-2.9-9.44-7.5-12.22C42.03 28.66 37.27 30 32 30Zm0 4.5a6.5 6.5 0 1 1 0 13 6.5 6.5 0 0 1 0-13Zm0 4a2.5 2.5 0 1 0 0 5 2.5 2.5 0 0 0 0-5Zm-13.38-3.92a2 2 0 0 1 2.74-.7l5.2 3.05a2 2 0 0 1-2.02 3.45l-5.2-3.06a2 2 0 0 1-.72-2.74Zm26.76 0a2 2 0 0 1-.72 2.74l-5.2 3.06a2 2 0 0 1-2.02-3.45l5.2-3.05a2 2 0 0 1 2.74.7ZM20 45.16a2 2 0 0 1 2-2h4.8a2 2 0 0 1 0 4H22a2 2 0 0 1-2-2Zm15.2 0a2 2 0 0 1 2-2H42a2 2 0 0 1 0 4h-4.8a2 2 0 0 1-2-2ZM25.1 16.6c0-.88.72-1.6 1.6-1.6h10.6a1.6 1.6 0 1 1 0 3.2H26.7a1.6 1.6 0 0 1-1.6-1.6Z"/>
</svg>
