<svg xmlns="http://www.w3.org/2000/svg" viewBox="0 0 64 64" role="img" aria-labelledby="title desc">
  <title id="title">Video Camera Recorder</title>
  <desc id="desc">A video camera recorder icon with a DVR body, camera lens, status display, and recording indicator.</desc>
  <path fill="currentColor" d="M12 10h40c3.31 0 6 2.69 6 6v32c0 3.31-2.69 6-6 6H12c-3.31 0-6-2.69-6-6V16c0-3.31 2.69-6 6-6Zm0 5c-.55 0-1 .45-1 1v32c0 .55.45 1 1 1h40c.55 0 1-.45 1-1V16c0-.55-.45-1-1-1H12Zm6 6h18c1.1 0 2 .9 2 2v14c0 1.1-.9 2-2 2H18c-1.1 0-2-.9-2-2V23c0-1.1.9-2 2-2Zm3 4v10h13V25H21Zm25.5-2.5a4.5 4.5 0 1 1 0 9 4.5 4.5 0 0 1 0-9Zm0 3.5a1 1 0 1 0 0 2 1 1 0 0 0 0-2ZM17 43a2 2 0 0 1 2-2h13a2 2 0 0 1 0 4H19a2 2 0 0 1-2-2Zm23-2h9a2 2 0 0 1 0 4h-9a2 2 0 0 1 0-4Zm2-9h9a2 2 0 0 1 0 4h-9a2 2 0 0 1 0-4ZM25.2 27.1a1.5 1.5 0 0 1 1.56.08l4.25 2.77a1.5 1.5 0 0 1 0 2.51l-4.25 2.77A1.5 1.5 0 0 1 24.5 34v-5.55c0-.56.31-1.08.7-1.35Z"/>
</svg>
